<mxfile host="Electron" agent="Mozilla/5.0 (Windows NT 10.0; Win64; x64) AppleWebKit/537.36 (KHTML, like Gecko) draw.io/28.0.6 Chrome/138.0.7204.100 Electron/37.2.3 Safari/537.36" version="28.0.6">
  <diagram name="Página-1" id="lGzy7BDibF1ovuq68vUy">
    <mxGraphModel dx="1090" dy="825" grid="0" gridSize="10" guides="1" tooltips="1" connect="1" arrows="1" fold="1" page="1" pageScale="1" pageWidth="827" pageHeight="1169" math="0" shadow="0">
      <root>
        <mxCell id="0" />
        <mxCell id="1" parent="0" />
        <mxCell id="s8fjnfwIiGr6dg-QHo8h-1" value="Asignación de docentes, carga académica Blackboard" style="shape=table;startSize=34;container=1;collapsible=0;childLayout=tableLayout;fixedRows=1;rowLines=0;fontStyle=0;fontSize=15;fontFamily=Times New Roman;" vertex="1" parent="1">
          <mxGeometry x="27" y="32" width="396" height="106" as="geometry" />
        </mxCell>
        <mxCell id="s8fjnfwIiGr6dg-QHo8h-2" value="" style="shape=tableRow;horizontal=0;startSize=0;swimlaneHead=0;swimlaneBody=0;top=0;left=0;bottom=0;right=0;collapsible=0;dropTarget=0;fillColor=none;points=[[0,0.5],[1,0.5]];portConstraint=eastwest;strokeColor=inherit;fontSize=16;fontFamily=Times New Roman;" vertex="1" parent="s8fjnfwIiGr6dg-QHo8h-1">
          <mxGeometry y="34" width="396" height="22" as="geometry" />
        </mxCell>
        <mxCell id="s8fjnfwIiGr6dg-QHo8h-3" value="&lt;font style=&quot;font-size: 14px;&quot;&gt;Detalle&lt;/font&gt;&lt;div&gt;&lt;br&gt;&lt;/div&gt;" style="shape=partialRectangle;html=1;whiteSpace=wrap;connectable=0;fillColor=none;top=0;left=0;bottom=0;right=0;overflow=hidden;pointerEvents=1;strokeColor=inherit;fontSize=16;fontFamily=Times New Roman;" vertex="1" parent="s8fjnfwIiGr6dg-QHo8h-2">
          <mxGeometry width="70" height="22" as="geometry">
            <mxRectangle width="70" height="22" as="alternateBounds" />
          </mxGeometry>
        </mxCell>
        <mxCell id="s8fjnfwIiGr6dg-QHo8h-4" value="&lt;font style=&quot;font-size: 15px;&quot;&gt;Ciclo 01-2025&lt;/font&gt;" style="shape=partialRectangle;html=1;whiteSpace=wrap;connectable=0;fillColor=none;top=0;left=0;bottom=0;right=0;align=left;spacingLeft=6;overflow=hidden;strokeColor=inherit;fontSize=16;fontFamily=Times New Roman;" vertex="1" parent="s8fjnfwIiGr6dg-QHo8h-2">
          <mxGeometry x="70" width="326" height="22" as="geometry">
            <mxRectangle width="326" height="22" as="alternateBounds" />
          </mxGeometry>
        </mxCell>
        <mxCell id="s8fjnfwIiGr6dg-QHo8h-5" value="" style="shape=tableRow;horizontal=0;startSize=0;swimlaneHead=0;swimlaneBody=0;top=0;left=0;bottom=0;right=0;collapsible=0;dropTarget=0;fillColor=none;points=[[0,0.5],[1,0.5]];portConstraint=eastwest;strokeColor=inherit;fontSize=16;fontFamily=Times New Roman;" vertex="1" parent="s8fjnfwIiGr6dg-QHo8h-1">
          <mxGeometry y="56" width="396" height="30" as="geometry" />
        </mxCell>
        <mxCell id="s8fjnfwIiGr6dg-QHo8h-6" value="&lt;font style=&quot;font-size: 14px;&quot;&gt;Encargado&lt;/font&gt;" style="shape=partialRectangle;html=1;whiteSpace=wrap;connectable=0;fillColor=none;top=0;left=0;bottom=0;right=0;overflow=hidden;strokeColor=inherit;fontSize=16;fontFamily=Times New Roman;" vertex="1" parent="s8fjnfwIiGr6dg-QHo8h-5">
          <mxGeometry width="70" height="30" as="geometry">
            <mxRectangle width="70" height="30" as="alternateBounds" />
          </mxGeometry>
        </mxCell>
        <mxCell id="s8fjnfwIiGr6dg-QHo8h-7" value="&lt;span style=&quot;font-size: 14px;&quot;&gt;Juan Santos y René Cruz&lt;/span&gt;" style="shape=partialRectangle;html=1;whiteSpace=wrap;connectable=0;fillColor=none;top=0;left=0;bottom=0;right=0;align=left;spacingLeft=6;overflow=hidden;strokeColor=inherit;fontSize=16;fontFamily=Times New Roman;" vertex="1" parent="s8fjnfwIiGr6dg-QHo8h-5">
          <mxGeometry x="70" width="326" height="30" as="geometry">
            <mxRectangle width="326" height="30" as="alternateBounds" />
          </mxGeometry>
        </mxCell>
        <mxCell id="s8fjnfwIiGr6dg-QHo8h-8" value="" style="shape=tableRow;horizontal=0;startSize=0;swimlaneHead=0;swimlaneBody=0;top=0;left=0;bottom=0;right=0;collapsible=0;dropTarget=0;fillColor=none;points=[[0,0.5],[1,0.5]];portConstraint=eastwest;strokeColor=inherit;fontSize=16;fontFamily=Times New Roman;" vertex="1" parent="s8fjnfwIiGr6dg-QHo8h-1">
          <mxGeometry y="86" width="396" height="20" as="geometry" />
        </mxCell>
        <mxCell id="s8fjnfwIiGr6dg-QHo8h-9" value="" style="shape=partialRectangle;html=1;whiteSpace=wrap;connectable=0;fillColor=none;top=0;left=0;bottom=0;right=0;overflow=hidden;strokeColor=inherit;fontSize=16;fontFamily=Times New Roman;" vertex="1" parent="s8fjnfwIiGr6dg-QHo8h-8">
          <mxGeometry width="70" height="20" as="geometry">
            <mxRectangle width="70" height="20" as="alternateBounds" />
          </mxGeometry>
        </mxCell>
        <mxCell id="s8fjnfwIiGr6dg-QHo8h-10" value="" style="shape=partialRectangle;html=1;whiteSpace=wrap;connectable=0;fillColor=none;top=0;left=0;bottom=0;right=0;align=left;spacingLeft=6;overflow=hidden;strokeColor=inherit;fontSize=16;fontFamily=Times New Roman;" vertex="1" parent="s8fjnfwIiGr6dg-QHo8h-8">
          <mxGeometry x="70" width="326" height="20" as="geometry">
            <mxRectangle width="326" height="20" as="alternateBounds" />
          </mxGeometry>
        </mxCell>
        <mxCell id="s8fjnfwIiGr6dg-QHo8h-13" value="" style="edgeStyle=orthogonalEdgeStyle;rounded=0;orthogonalLoop=1;jettySize=auto;html=1;" edge="1" parent="1" source="s8fjnfwIiGr6dg-QHo8h-11" target="s8fjnfwIiGr6dg-QHo8h-12">
          <mxGeometry relative="1" as="geometry" />
        </mxCell>
        <mxCell id="s8fjnfwIiGr6dg-QHo8h-11" value="&lt;font style=&quot;font-size: 14px;&quot;&gt;Asignación de docentes, carga académica Blackboard&lt;/font&gt;" style="rounded=0;whiteSpace=wrap;html=1;fillColor=#dae8fc;strokeColor=#6c8ebf;fontFamily=Times New Roman;" vertex="1" parent="1">
          <mxGeometry x="330" y="222" width="168" height="60" as="geometry" />
        </mxCell>
        <mxCell id="s8fjnfwIiGr6dg-QHo8h-15" value="" style="edgeStyle=orthogonalEdgeStyle;rounded=0;orthogonalLoop=1;jettySize=auto;html=1;" edge="1" parent="1" source="s8fjnfwIiGr6dg-QHo8h-12" target="s8fjnfwIiGr6dg-QHo8h-14">
          <mxGeometry relative="1" as="geometry" />
        </mxCell>
        <mxCell id="s8fjnfwIiGr6dg-QHo8h-12" value="&lt;font style=&quot;font-size: 14px;&quot;&gt;Desde el área técnica notificar a la dirección de tecnología la carga masiva de aulas y enrolamiento de docentes a: al origen de dato y periodo correspondiente&lt;/font&gt;" style="whiteSpace=wrap;html=1;fontFamily=Times New Roman;rounded=0;" vertex="1" parent="1">
          <mxGeometry x="287" y="333" width="253" height="84" as="geometry" />
        </mxCell>
        <mxCell id="s8fjnfwIiGr6dg-QHo8h-17" value="" style="edgeStyle=orthogonalEdgeStyle;rounded=0;orthogonalLoop=1;jettySize=auto;html=1;" edge="1" parent="1" source="s8fjnfwIiGr6dg-QHo8h-14" target="s8fjnfwIiGr6dg-QHo8h-16">
          <mxGeometry relative="1" as="geometry" />
        </mxCell>
        <mxCell id="s8fjnfwIiGr6dg-QHo8h-14" value="&lt;font style=&quot;font-size: 14px;&quot;&gt;Esperar confirmación del proceso por parte de la dirección de tecnología&lt;/font&gt;" style="whiteSpace=wrap;html=1;fontFamily=Times New Roman;rounded=0;" vertex="1" parent="1">
          <mxGeometry x="337.5" y="468" width="153" height="71" as="geometry" />
        </mxCell>
        <mxCell id="s8fjnfwIiGr6dg-QHo8h-16" value="&lt;font style=&quot;font-size: 14px;&quot;&gt;El área técnica verifica que se haya asignado la planta de docente de acuerdo con la carga académica segun el sistema empresarial&lt;/font&gt;" style="whiteSpace=wrap;html=1;fontFamily=Times New Roman;rounded=0;" vertex="1" parent="1">
          <mxGeometry x="316" y="593" width="195" height="85" as="geometry" />
        </mxCell>
      </root>
    </mxGraphModel>
  </diagram>
</mxfile>
